<svg version="1.1" xmlns="http://www.w3.org/2000/svg" xmlns:xlink="http://www.w3.org/1999/xlink" x="0px" y="0px" viewBox="0 0 1000 1000" enable-background="new 0 0 1000 1000" xml:space="preserve">
<metadata> Svg Vector Icons : http://www.onlinewebfonts.com/icon </metadata>
<g><g transform="translate(0.000000,511.000000) scale(0.100000,-0.100000)"><path d="M4985.1,5005.8c-286-34.8-562.4-123.7-780.7-253.2c-641.6-373-997.2-1117-873.5-1822.4c17.4-100.5,38.6-189.4,46.4-197.1c7.7-7.7,98.6,29,202.9,81.2c467.7,233.8,1001.1,347.9,1636.9,347.9c626.1,0,1113.1-110.2,1569.2-353.6c83.1-42.5,154.6-75.4,158.5-69.6c5.8,5.8,25.1,92.8,42.5,191.3c160.4,919.9-485.1,1841.7-1424.3,2036.9C5410.2,4998.1,5099.1,5019.4,4985.1,5005.8z"/><path d="M4965.7,2783.4c-510.2-56-765.3-110.1-1064.8-230c-599.1-237.7-1030-620.3-1287.1-1140.2C2393.5,963,2329.8,489.6,2378.1-326c32.9-546.9,32.9-552.7-32.9-724.7c-46.4-125.6-54.1-172-54.1-347.8c0-162.3,9.7-224.2,42.5-311.1c69.6-175.9,152.7-282.2,301.5-386.5c177.8-125.6,199.1-164.3,150.7-274.4c-52.2-117.9-144.9-214.5-316.9-336.3c-295.7-206.8-411.6-396.2-398.1-653.2c17.4-334.3,305.3-639.7,641.6-678.3c104.4-11.6,108.2-11.6,175.9,56c52.2,52.2,67.6,83.1,67.6,135.3c0,92.8-77.3,181.7-170.1,199.1c-102.4,19.3-162.3,52.2-241.6,141.1c-61.8,67.6-71.5,92.8-71.5,173.9c0,116,34.8,162.3,216.4,289.9l137.2,94.7l38.7-69.6c137.2-255.1,456.1-657.1,742.1-933.4c409.7-396.2,805.9-651.3,1204-780.7c465.7-150.7,960.5-9.7,1580.8,454.1c315,231.9,842.6,798.1,946.9,1010.7l32.9,69.6l63.8-40.6c114-71.5,106.3-189.4-23.2-318.9c-75.4-75.4-92.8-83.1-175.8-83.1c-77.3,0-100.5-9.7-156.5-65.7c-73.4-73.4-85-148.8-38.6-239.6c38.6-75.4,115.9-110.2,243.5-110.2c231.9,1.9,506.3,206.8,601,450.3c54.1,135.3,58,344,9.7,454.1c-40.6,90.8-152.7,218.4-249.3,278.3c-189.4,117.9-342.1,309.2-342.1,425.2c0,77.3,42.5,121.7,170.1,187.5c287.9,144.9,456.1,490.8,456.1,929.5c0,239.6-32.9,396.2-123.7,581.7l-58,117.9l29,220.3c15.5,121.7,36.7,286,46.4,365.2c48.3,361.4,17.4,860-75.4,1198.2c-52.2,191.3-224.2,537.2-345.9,697.6c-438.7,577.8-1180.8,908.3-2087.1,933.4C5160.9,2787.3,5002.5,2789.3,4965.7,2783.4z M4194.7,843.2c25.1-29,34.8-100.5,46.4-322.7c5.8-158.5,21.3-359.4,30.9-450.3c17.4-160.4,19.3-166.2,100.5-237.7c112.1-100.5,359.4-253.2,525.6-320.8c330.4-137.2,635.8-199.1,1217.5-243.5c212.6-17.4,434.8-38.7,492.8-48.3c58-9.7,168.1-17.4,243.5-17.4c175.9-1.9,303.4-61.8,378.8-177.8c143-218.4,110.2-643.5-58-744c-272.5-166.2-388.4-291.8-450.3-492.8c-83.1-266.7-7.7-577.8,204.8-838.7l46.4-59.9l-100.5-125.6c-284.1-355.6-589.4-641.6-908.3-850.3c-552.7-363.3-887-390.4-1381.8-110.2c-458,260.9-910.2,693.8-1256.1,1200.1l-116,170.1l65.7,110.2c96.6,158.5,129.5,289.9,119.8,465.8c-15.5,253.1-139.1,454.1-376.8,612.6c-123.7,81.2-148.8,133.3-135.3,280.2c21.3,237.7,185.5,436.7,490.9,589.4c220.3,110.1,380.7,249.3,508.2,446.4c87,131.4,90.8,141.1,75.4,231.9c-7.7,50.2-25.1,253.2-36.7,450.3c-21.3,315-19.3,367.2,7.7,430.9c15.5,40.6,48.3,81.2,73.4,90.8C4065.2,907,4157.9,889.6,4194.7,843.2z"/><path d="M3599.4-1122.2c-52.2-19.3-21.3-81.1,79.2-156.5c102.4-79.2,104.4-79.2,94.7-166.2c-36.7-324.7,405.8-494.7,606.8-230c52.2,69.6,79.2,212.6,56,305.3c-30.9,123.7-197.1,241.6-340.1,241.6c-46.4,0-170.1-54.1-233.8-98.6c-27.1-19.3-48.3-11.6-129.5,46.4c-52.2,38.7-98.6,71.5-102.4,69.6C3626.5-1110.6,3611-1116.4,3599.4-1122.2z"/><path d="M6560.1-1180.2c-75.4-56-98.5-65.7-123.7-46.4c-69.6,50.2-189.4,98.6-251.2,98.6c-87,0-224.2-67.6-270.6-131.4c-94.7-135.3-90.8-309.2,11.6-430.9c125.6-148.8,371.1-156.5,502.5-13.5c67.6,73.4,108.2,185.5,94.7,274.4c-11.6,77.3-9.7,81.2,94.7,154.6c108.2,79.2,123.7,102.4,83.1,143C6668.3-1099,6662.5-1100.9,6560.1-1180.2z"/><path d="M4370.5-2724.2c-144.9-102.4,90.8-390.4,403.9-490.9c106.3-34.8,185.5-46.4,326.6-46.4c367.2,0,631.9,119.8,765.3,347.9c56.1,94.7,50.3,146.9-21.3,193.3c-61.8,40.6-117.9,19.3-172-65.7c-59.9-94.7-102.4-129.5-210.6-177.8c-187.5-83.1-523.7-83.1-693.8,0c-46.4,23.2-131.4,92.8-191.3,156.5C4461.3-2685.6,4438.2-2675.9,4370.5-2724.2z"/></g></g>
</svg>